<svg xmlns="http://www.w3.org/2000/svg" width="32" height="38" viewBox="0 0 32 38" fill="none">
  <mask id="path-1-inside-1_1813_659" fill="white">
    <path d="M3.42857 0C2.51926 0 1.64719 0.375334 1.00421 1.04343C0.361224 1.71153 0 2.61767 0 3.5625V34.4375C0 35.3823 0.361224 36.2885 1.00421 36.9566C1.64719 37.6247 2.51926 38 3.42857 38H19.4286C20.3379 38 21.21 37.6247 21.8529 36.9566C22.4959 36.2885 22.8571 35.3823 22.8571 34.4375V30.875C22.8571 30.5601 22.7367 30.258 22.5224 30.0353C22.3081 29.8126 22.0174 29.6875 21.7143 29.6875C20.7703 29.6875 20.1669 29.4452 19.7577 29.127C19.3417 28.804 19.0187 28.3108 18.7886 27.6474C18.2994 26.2509 18.2857 24.4007 18.2857 22.5625C18.2857 22.4063 18.256 22.2516 18.1983 22.1073C18.1407 21.9631 18.0562 21.832 17.9497 21.7218L17.296 21.0401L14.5234 18.1593C13.456 17.0501 13.1429 16.3067 13.0834 15.8911C13.0377 15.5586 13.1337 15.3354 13.3623 15.1074C13.8514 14.6205 14.2011 14.2904 14.5966 14.1906C14.832 14.1289 15.3691 14.0861 16.3337 15.0884L23.1909 22.2134C23.4052 22.4364 23.6959 22.5618 23.9992 22.562C24.1494 22.5621 24.2981 22.5315 24.4368 22.4719C24.5756 22.4122 24.7017 22.3248 24.808 22.2146C24.9143 22.1043 24.9986 21.9734 25.0561 21.8293C25.1137 21.6852 25.1434 21.5307 25.1435 21.3747C25.1436 21.2186 25.1141 21.0641 25.0568 20.9199C24.9994 20.7757 24.9153 20.6447 24.8091 20.5343L22.8571 18.5084V11.1791L28.7086 17.2591C29.0273 17.5899 29.2802 17.9827 29.4528 18.4151C29.6253 18.8474 29.7142 19.3109 29.7143 19.779V36.8125C29.7143 37.1274 29.8347 37.4295 30.049 37.6522C30.2633 37.8749 30.554 38 30.8571 38C31.1602 38 31.4509 37.8749 31.6653 37.6522C31.8796 37.4295 32 37.1274 32 36.8125V19.779C31.9997 18.205 31.3979 16.6955 30.3269 15.5824L22.8571 7.82088V3.5625C22.8571 2.61767 22.4959 1.71153 21.8529 1.04343C21.21 0.375334 20.3379 0 19.4286 0H3.42857ZM20.5714 8.3125V16.1334L17.952 13.4093C16.6309 12.0365 15.3143 11.5639 14.0549 11.8821C13.8074 11.9453 13.5674 12.0369 13.3394 12.1553C12.3177 11.8472 11.241 11.7904 10.1944 11.9894C9.14791 12.1883 8.1603 12.6376 7.30971 13.3016C6.45913 13.9656 5.76891 14.8261 5.29365 15.8152C4.81839 16.8042 4.57113 17.8945 4.57143 19C4.57133 20.3774 4.95546 21.7252 5.67732 22.8805C6.39918 24.0357 7.42783 24.9488 8.63875 25.5092C9.84967 26.0695 11.191 26.2532 12.5003 26.038C13.8096 25.8227 15.0307 25.2177 16.016 24.2962C16.0549 25.669 16.1874 27.17 16.64 28.4596C16.9783 29.4263 17.5177 30.3501 18.3863 31.0246L18.4 31.0389C17.704 31.2663 17.0959 31.7185 16.6643 32.3298C16.2327 32.941 16 33.6794 16 34.4375V35.625H6.85714V34.4375C6.85714 33.4927 6.49592 32.5865 5.85294 31.9184C5.20996 31.2503 4.33789 30.875 3.42857 30.875H2.28571V7.125H3.42857C4.33789 7.125 5.20996 6.74967 5.85294 6.08157C6.49592 5.41347 6.85714 4.50733 6.85714 3.5625V2.375H16V3.5625C16 4.50733 16.3612 5.41347 17.0042 6.08157C17.6472 6.74967 18.5193 7.125 19.4286 7.125H20.5714V8.3125ZM20.5714 34.4375V34.4589C20.566 34.7701 20.4433 35.0667 20.2295 35.2848C20.0158 35.5029 19.7281 35.625 19.4286 35.625H18.2857V34.4375C18.2857 34.1226 18.4061 33.8205 18.6204 33.5978C18.8348 33.3751 19.1255 33.25 19.4286 33.25H20.5714V34.4375ZM6.85714 19C6.85716 17.792 7.3001 16.6295 8.09584 15.7488C8.89157 14.8682 9.98033 14.3356 11.1406 14.2595C10.8571 14.8057 10.7131 15.4707 10.8229 16.2379C10.9851 17.3826 11.6869 18.5725 12.9051 19.8384L14.9783 21.9925C14.3831 22.7546 13.5754 23.3064 12.6662 23.5721C11.7569 23.8378 10.7908 23.8043 9.90064 23.4763C9.01045 23.1482 8.2399 22.5418 7.69491 21.7402C7.14992 20.9387 6.85725 19.9814 6.85714 19ZM4.57143 2.375V3.5625C4.57143 3.87744 4.45102 4.17949 4.23669 4.40219C4.02237 4.62489 3.73168 4.75 3.42857 4.75H2.28571V3.5625C2.28571 3.24756 2.40612 2.94551 2.62045 2.72281C2.83478 2.50011 3.12547 2.375 3.42857 2.375H4.57143ZM2.28571 33.25H3.42857C3.73168 33.25 4.02237 33.3751 4.23669 33.5978C4.45102 33.8205 4.57143 34.1226 4.57143 34.4375V35.625H3.42857C3.12547 35.625 2.83478 35.4999 2.62045 35.2772C2.40612 35.0545 2.28571 34.7524 2.28571 34.4375V33.25ZM20.5714 4.75H19.4286C19.1255 4.75 18.8348 4.62489 18.6204 4.40219C18.4061 4.17949 18.2857 3.87744 18.2857 3.5625V2.375H19.4286C19.7317 2.375 20.0224 2.50011 20.2367 2.72281C20.451 2.94551 20.5714 3.24756 20.5714 3.5625V4.75Z"/>
  </mask>
  <path d="M3.42857 0C2.51926 0 1.64719 0.375334 1.00421 1.04343C0.361224 1.71153 0 2.61767 0 3.5625V34.4375C0 35.3823 0.361224 36.2885 1.00421 36.9566C1.64719 37.6247 2.51926 38 3.42857 38H19.4286C20.3379 38 21.21 37.6247 21.8529 36.9566C22.4959 36.2885 22.8571 35.3823 22.8571 34.4375V30.875C22.8571 30.5601 22.7367 30.258 22.5224 30.0353C22.3081 29.8126 22.0174 29.6875 21.7143 29.6875C20.7703 29.6875 20.1669 29.4452 19.7577 29.127C19.3417 28.804 19.0187 28.3108 18.7886 27.6474C18.2994 26.2509 18.2857 24.4007 18.2857 22.5625C18.2857 22.4063 18.256 22.2516 18.1983 22.1073C18.1407 21.9631 18.0562 21.832 17.9497 21.7218L17.296 21.0401L14.5234 18.1593C13.456 17.0501 13.1429 16.3067 13.0834 15.8911C13.0377 15.5586 13.1337 15.3354 13.3623 15.1074C13.8514 14.6205 14.2011 14.2904 14.5966 14.1906C14.832 14.1289 15.3691 14.0861 16.3337 15.0884L23.1909 22.2134C23.4052 22.4364 23.6959 22.5618 23.9992 22.562C24.1494 22.5621 24.2981 22.5315 24.4368 22.4719C24.5756 22.4122 24.7017 22.3248 24.808 22.2146C24.9143 22.1043 24.9986 21.9734 25.0561 21.8293C25.1137 21.6852 25.1434 21.5307 25.1435 21.3747C25.1436 21.2186 25.1141 21.0641 25.0568 20.9199C24.9994 20.7757 24.9153 20.6447 24.8091 20.5343L22.8571 18.5084V11.1791L28.7086 17.2591C29.0273 17.5899 29.2802 17.9827 29.4528 18.4151C29.6253 18.8474 29.7142 19.3109 29.7143 19.779V36.8125C29.7143 37.1274 29.8347 37.4295 30.049 37.6522C30.2633 37.8749 30.554 38 30.8571 38C31.1602 38 31.4509 37.8749 31.6653 37.6522C31.8796 37.4295 32 37.1274 32 36.8125V19.779C31.9997 18.205 31.3979 16.6955 30.3269 15.5824L22.8571 7.82088V3.5625C22.8571 2.61767 22.4959 1.71153 21.8529 1.04343C21.21 0.375334 20.3379 0 19.4286 0H3.42857ZM20.5714 8.3125V16.1334L17.952 13.4093C16.6309 12.0365 15.3143 11.5639 14.0549 11.8821C13.8074 11.9453 13.5674 12.0369 13.3394 12.1553C12.3177 11.8472 11.241 11.7904 10.1944 11.9894C9.14791 12.1883 8.1603 12.6376 7.30971 13.3016C6.45913 13.9656 5.76891 14.8261 5.29365 15.8152C4.81839 16.8042 4.57113 17.8945 4.57143 19C4.57133 20.3774 4.95546 21.7252 5.67732 22.8805C6.39918 24.0357 7.42783 24.9488 8.63875 25.5092C9.84967 26.0695 11.191 26.2532 12.5003 26.038C13.8096 25.8227 15.0307 25.2177 16.016 24.2962C16.0549 25.669 16.1874 27.17 16.64 28.4596C16.9783 29.4263 17.5177 30.3501 18.3863 31.0246L18.4 31.0389C17.704 31.2663 17.0959 31.7185 16.6643 32.3298C16.2327 32.941 16 33.6794 16 34.4375V35.625H6.85714V34.4375C6.85714 33.4927 6.49592 32.5865 5.85294 31.9184C5.20996 31.2503 4.33789 30.875 3.42857 30.875H2.28571V7.125H3.42857C4.33789 7.125 5.20996 6.74967 5.85294 6.08157C6.49592 5.41347 6.85714 4.50733 6.85714 3.5625V2.375H16V3.5625C16 4.50733 16.3612 5.41347 17.0042 6.08157C17.6472 6.74967 18.5193 7.125 19.4286 7.125H20.5714V8.3125ZM20.5714 34.4375V34.4589C20.566 34.7701 20.4433 35.0667 20.2295 35.2848C20.0158 35.5029 19.7281 35.625 19.4286 35.625H18.2857V34.4375C18.2857 34.1226 18.4061 33.8205 18.6204 33.5978C18.8348 33.3751 19.1255 33.25 19.4286 33.25H20.5714V34.4375ZM6.85714 19C6.85716 17.792 7.3001 16.6295 8.09584 15.7488C8.89157 14.8682 9.98033 14.3356 11.1406 14.2595C10.8571 14.8057 10.7131 15.4707 10.8229 16.2379C10.9851 17.3826 11.6869 18.5725 12.9051 19.8384L14.9783 21.9925C14.3831 22.7546 13.5754 23.3064 12.6662 23.5721C11.7569 23.8378 10.7908 23.8043 9.90064 23.4763C9.01045 23.1482 8.2399 22.5418 7.69491 21.7402C7.14992 20.9387 6.85725 19.9814 6.85714 19ZM4.57143 2.375V3.5625C4.57143 3.87744 4.45102 4.17949 4.23669 4.40219C4.02237 4.62489 3.73168 4.75 3.42857 4.75H2.28571V3.5625C2.28571 3.24756 2.40612 2.94551 2.62045 2.72281C2.83478 2.50011 3.12547 2.375 3.42857 2.375H4.57143ZM2.28571 33.25H3.42857C3.73168 33.25 4.02237 33.3751 4.23669 33.5978C4.45102 33.8205 4.57143 34.1226 4.57143 34.4375V35.625H3.42857C3.12547 35.625 2.83478 35.4999 2.62045 35.2772C2.40612 35.0545 2.28571 34.7524 2.28571 34.4375V33.25ZM20.5714 4.75H19.4286C19.1255 4.75 18.8348 4.62489 18.6204 4.40219C18.4061 4.17949 18.2857 3.87744 18.2857 3.5625V2.375H19.4286C19.7317 2.375 20.0224 2.50011 20.2367 2.72281C20.451 2.94551 20.5714 3.24756 20.5714 3.5625V4.75Z" stroke="black" stroke-width="6" mask="url(#path-1-inside-1_1813_659)"/>
</svg>