<svg xmlns="http://www.w3.org/2000/svg" width="42" height="36" viewBox="0 0 42 36" fill="none">
  <circle cx="34" cy="8.82715" r="2" fill="black"/>
  <path d="M9.5 34H18.5M14 34V28.25M2 13.875V25.375C2 26.1375 2.31607 26.8688 2.87868 27.4079C3.44129 27.9471 4.20435 28.25 5 28.25H23C23.7956 28.25 24.5587 27.9471 25.1213 27.4079C25.6839 26.8688 26 26.1375 26 25.375V13.875C26 13.1125 25.6839 12.3812 25.1213 11.8421C24.5587 11.3029 23.7956 11 23 11H5C4.20435 11 3.44129 11.3029 2.87868 11.8421C2.31607 12.3812 2 13.1125 2 13.875Z" stroke="black" stroke-width="3" stroke-linecap="round" stroke-linejoin="round"/>
  <path d="M23 4.90909V3.45455C23 3.06878 23.1493 2.69881 23.4149 2.42603C23.6806 2.15325 24.0409 2 24.4167 2H38.5833C38.9591 2 39.3194 2.15325 39.5851 2.42603C39.8507 2.69881 40 3.06878 40 3.45455V32.5455C40 32.9312 39.8507 33.3012 39.5851 33.574C39.3194 33.8468 38.9591 34 38.5833 34H27.25" stroke="black" stroke-width="3" stroke-linecap="round" stroke-linejoin="round"/>
  <path d="M31 15H40" stroke="black" stroke-width="3" stroke-linecap="round" stroke-linejoin="round"/>
</svg>