<svg xmlns="http://www.w3.org/2000/svg" width="42" height="42" viewBox="0 0 42 42" fill="none">
  <path d="M30.3027 2.84727C31.6813 3.10912 32.4999 3.39883 33.2051 4.26796C34.0925 5.35623 34.046 6.53178 33.9511 8.88289C33.6162 17.3383 31.7185 28 21.0023 28C10.286 28 8.38642 17.3402 8.04781 8.88289C7.95479 6.53178 7.90828 5.35437 8.792 4.26796C9.67758 3.17969 10.7362 3.00141 12.8553 2.64485C15.5477 2.2046 18.2721 1.98905 21.0004 2.00043C22.3374 2.0029 23.5778 2.045 24.7213 2.12671" stroke="black" stroke-width="3" stroke-linecap="round"/>
  <path d="M34.3 8L36.1031 8.58987C37.9841 9.20587 38.9246 9.51387 39.4623 10.2475C40 10.9811 40 11.9573 40 13.9024V14.0387C40 15.644 40 16.4485 39.6067 17.1056C39.2134 17.7627 38.4971 18.1528 37.0683 18.9349L31.45 22M7.7 8L5.8969 8.58987C4.0159 9.20587 3.0754 9.51387 2.5377 10.2475C2 10.9811 2 11.9573 2 13.9024V14.0387C2 15.644 2 16.4485 2.3933 17.1056C2.7866 17.7627 3.5029 18.1528 4.9317 18.9349L10.55 22" stroke="black" stroke-width="3"/>
  <path d="M20 30V33" stroke="black" stroke-width="3" stroke-linecap="round"/>
  <path d="M28 40H14L14.68 35.9296C14.7706 35.3857 15.0154 34.8963 15.3727 34.5445C15.73 34.1927 16.1778 34.0003 16.64 34H25.36C25.8222 34.0003 26.27 34.1927 26.6273 34.5445C26.9846 34.8963 27.2294 35.3857 27.32 35.9296L28 40Z" stroke="black" stroke-width="3" stroke-linecap="round" stroke-linejoin="round"/>
  <path d="M33 40H9" stroke="black" stroke-width="3" stroke-linecap="round"/>
</svg>