<svg xmlns="http://www.w3.org/2000/svg" width="35" height="35" fill="none"><path fill="#FFED00" d="M7.74 31.354q-1.104 0-1.87-.766t-.766-1.87V9.198q0-1.105.766-1.87t1.87-.766h2.02V4.6q0-.48.321-.8.321-.322.8-.321.48 0 .801.32.322.322.322.801v1.963h11.05v-1.99q0-.466.313-.78.315-.314.78-.314t.78.313q.314.315.314.78v1.991h2.019q1.105 0 1.87.766.766.765.766 1.87v19.52q0 1.104-.765 1.87t-1.871.766zm0-2.188h19.52a.43.43 0 0 0 .308-.14.43.43 0 0 0 .14-.308V15.032H7.293v13.686q0 .168.14.308t.309.14m-.448-16.322h20.417V9.2a.43.43 0 0 0-.14-.309.43.43 0 0 0-.31-.14H7.742a.43.43 0 0 0-.309.14.43.43 0 0 0-.14.309zM17.5 20.53q-.535 0-.913-.378a1.24 1.24 0 0 1-.377-.913q0-.535.377-.912.378-.377.913-.377.536 0 .913.377t.377.912q0 .537-.377.913a1.24 1.24 0 0 1-.913.378m-5.833 0q-.535 0-.913-.378a1.24 1.24 0 0 1-.377-.913q0-.535.377-.912.378-.377.913-.377t.913.377.377.912q0 .537-.377.913a1.24 1.24 0 0 1-.913.378m11.667 0q-.536 0-.913-.378a1.24 1.24 0 0 1-.377-.913q0-.535.377-.912t.913-.377q.535 0 .913.377.376.377.377.912 0 .537-.377.913a1.24 1.24 0 0 1-.913.378M17.5 26.25q-.535 0-.913-.377a1.24 1.24 0 0 1-.377-.912q0-.536.377-.913.378-.377.913-.377.536 0 .913.377t.377.913-.377.912a1.24 1.24 0 0 1-.913.378m-5.833 0q-.535 0-.913-.377a1.24 1.24 0 0 1-.377-.912q0-.536.377-.913.378-.377.913-.377t.913.377.377.913q0 .535-.377.912a1.24 1.24 0 0 1-.913.378m11.667 0q-.536 0-.913-.377a1.24 1.24 0 0 1-.377-.912q0-.536.377-.913t.913-.377q.535 0 .913.377.376.377.377.913 0 .535-.377.912a1.24 1.24 0 0 1-.913.378"/></svg>