<svg class="style-svg replaced-svg svg-replaced-0" id="svg-replaced-0" fill="none" viewBox="0 0 35 36" height="36" width="35" xmlns="http://www.w3.org/2000/svg">
  <path fill="white" d="M17.5 0.5C27.1585 0.5 35 8.3415 35 18C35 27.6585 27.1585 35.5 17.5 35.5C7.8415 35.5 0 27.6585 0 18C0 8.3415 7.8415 0.5 17.5 0.5ZM17.5 7.0625C14.5296 7.0625 14.1571 7.07508 12.9905 7.12833C11.8263 7.18145 11.0312 7.36636 10.3355 7.63672C9.61625 7.91624 9.00628 8.29023 8.39822 8.89829C7.79017 9.50635 7.41617 10.1163 7.13665 10.8355C6.86629 11.5312 6.68145 12.3263 6.62826 13.4905C6.57508 14.6571 6.5625 15.0296 6.5625 18C6.5625 20.9704 6.57508 21.3429 6.62826 22.5095C6.68145 23.6737 6.86629 24.4688 7.13665 25.1645C7.41617 25.8837 7.79017 26.4937 8.39822 27.1018C9.00628 27.7098 9.61625 28.0838 10.3355 28.3633C11.0312 28.6336 11.8263 28.8186 12.9905 28.8717C14.1571 28.9249 14.5296 28.9375 17.5 28.9375C20.4704 28.9375 20.8429 28.9249 22.0095 28.8717C23.1737 28.8186 23.9688 28.6336 24.6645 28.3633C25.3837 28.0838 25.9937 27.7098 26.6018 27.1018C27.2098 26.4937 27.5838 25.8837 27.8633 25.1645C28.1336 24.4688 28.3186 23.6737 28.3717 22.5095C28.4249 21.3429 28.4375 20.9704 28.4375 18C28.4375 15.0296 28.4249 14.6571 28.3717 13.4905C28.3186 12.3263 28.1336 11.5312 27.8633 10.8355C27.5838 10.1163 27.2098 9.50635 26.6018 8.89829C25.9937 8.29023 25.3837 7.91624 24.6645 7.63672C23.9688 7.36636 23.1737 7.18145 22.0095 7.12833C20.8429 7.07508 20.4704 7.0625 17.5 7.0625ZM17.5 9.03323C20.4204 9.03323 20.7663 9.04438 21.9197 9.09701C22.9861 9.14568 23.5652 9.32383 23.9506 9.4736C24.4612 9.67198 24.8255 9.90905 25.2082 10.2918C25.591 10.6745 25.828 11.0389 26.0264 11.5494C26.1762 11.9348 26.3544 12.5139 26.403 13.5803C26.4556 14.7337 26.4668 15.0796 26.4668 18C26.4668 20.9204 26.4556 21.2663 26.403 22.4197C26.3544 23.4861 26.1762 24.0652 26.0264 24.4506C25.828 24.9612 25.591 25.3255 25.2082 25.7082C24.8255 26.091 24.4612 26.328 23.9506 26.5264C23.5652 26.6762 22.9861 26.8544 21.9197 26.903C20.7666 26.9556 20.4207 26.9668 17.5 26.9668C14.5793 26.9668 14.2335 26.9556 13.0803 26.903C12.0139 26.8544 11.4348 26.6762 11.0494 26.5264C10.5388 26.328 10.1745 26.091 9.79173 25.7082C9.40898 25.3255 9.17198 24.9612 8.9736 24.4506C8.82383 24.0652 8.64562 23.4861 8.59694 22.4197C8.54431 21.2663 8.53323 20.9204 8.53323 18C8.53323 15.0796 8.54431 14.7337 8.59694 13.5803C8.64562 12.5139 8.82383 11.9348 8.9736 11.5494C9.17198 11.0389 9.40898 10.6745 9.79173 10.2918C10.1745 9.90905 10.5388 9.67198 11.0494 9.4736C11.4348 9.32383 12.0139 9.14568 13.0803 9.09701C14.2337 9.04438 14.5796 9.03323 17.5 9.03323ZM17.5 12.3835C14.3981 12.3835 11.8835 14.8981 11.8835 18C11.8835 21.1019 14.3981 23.6165 17.5 23.6165C20.6019 23.6165 23.1165 21.1019 23.1165 18C23.1165 14.8981 20.6019 12.3835 17.5 12.3835ZM17.5 21.6458C15.4865 21.6458 13.8542 20.0135 13.8542 18C13.8542 15.9865 15.4865 14.3542 17.5 14.3542C19.5135 14.3542 21.1458 15.9865 21.1458 18C21.1458 20.0135 19.5135 21.6458 17.5 21.6458ZM24.651 12.1616C24.651 12.8864 24.0633 13.474 23.3384 13.474C22.6136 13.474 22.026 12.8864 22.026 12.1616C22.026 11.4367 22.6136 10.8491 23.3384 10.8491C24.0633 10.8491 24.651 11.4367 24.651 12.1616Z" clip-rule="evenodd" fill-rule="evenodd"></path>
</svg>