<svg xmlns="http://www.w3.org/2000/svg" width="262" height="44" viewBox="0 0 262 44" fill="none">
  <path d="M240.151 2.58184C250.785 2.58184 259.436 11.2924 259.436 22C259.436 32.7076 250.785 41.4182 240.151 41.4182H184.849C174.215 41.4182 165.564 32.7076 165.564 22C165.564 11.2924 174.215 2.58184 184.849 2.58184H240.151ZM240.151 0H184.849C172.78 0 163 9.85127 163 22C163 34.1487 172.784 44 184.849 44H240.151C252.22 44 262 34.1487 262 22C262 9.85127 252.216 0 240.151 0Z" fill="#FFED00"/>
  <path d="M233.037 7H237V37H233.41L213.922 13.8958V37H210V7H213.38L233.037 30.3009V7Z" fill="white"/>
  <path d="M7.50285 30.041C5.35378 27.9728 4.27924 25.3292 4.27924 22.1167C4.27924 18.9041 5.37268 16.2765 7.55642 14.1604C9.74015 12.0442 12.4848 10.983 15.7935 10.983C19.1022 10.983 22.3163 11.9611 25.6943 13.9174V9.41023C21.9886 7.80234 18.62 7 15.5887 7C11.1928 7 7.49655 8.45445 4.49982 11.3601C1.49679 14.2658 0 17.8524 0 22.1135C0 24.7986 0.655436 27.292 1.96316 29.5967C3.27088 31.9014 5.05127 33.7139 7.29487 35.0277C9.53848 36.3415 12.2737 37 15.5004 37C19.4677 37 22.9686 36.1625 26 34.4843V29.8716C22.6661 32.0517 19.2503 33.1417 15.7494 33.1417C12.2485 33.1417 9.65192 32.1092 7.50285 30.0378V30.041Z" fill="white"/>
  <path d="M44.9327 17.3405L37.0757 7H32L42.8467 21.129V37H47.1533V21.129L58 7H52.8955L44.9327 17.3405Z" fill="white"/>
  <path d="M77.0144 21.1307C79.9841 19.8571 81.4705 17.7454 81.4705 14.7955C81.4705 13.2632 81.1164 11.9143 80.4051 10.7488C79.6938 9.58322 78.6603 8.66649 77.3078 7.99858C75.9553 7.33395 74.0702 7 71.6587 7H64V37H73.8947C76.1276 37 77.9841 36.6202 79.4705 35.8606C80.9569 35.1011 82.0829 34.1221 82.8485 32.9173C83.614 31.7157 84 30.3472 84 28.8149C84 26.8832 83.3684 25.2233 82.1053 23.8318C80.8421 22.4436 79.1451 21.54 77.0112 21.1275L77.0144 21.1307ZM68.185 10.8241H71.7831C75.3557 10.8241 77.1388 12.2647 77.1388 15.1393C77.1388 16.5274 76.6667 17.6603 75.7257 18.5312C74.7847 19.4053 73.1994 19.8408 70.9665 19.8408H68.185V10.8208V10.8241ZM78.9282 30.9234C78.4338 31.6961 77.7767 32.2657 76.9601 32.6292C76.1435 32.9959 74.5933 33.1759 72.3062 33.1759H68.185V23.6648H72.0957C74.1722 23.6648 75.6938 23.8515 76.6571 24.2214C77.6204 24.5947 78.3604 25.1578 78.8868 25.9174C79.4099 26.677 79.6714 27.5151 79.6714 28.4286C79.6714 29.342 79.4226 30.1474 78.9282 30.9201V30.9234Z" fill="white"/>
  <path d="M96.1901 23.8379H108.182V19.9883H96.1901V10.8266H108.6V7H92V37H109V33.1733H96.1901V23.8379Z" fill="white"/>
  <path d="M137.707 15.4606C137.707 9.19616 132.956 7 127.174 7H118V37H122.123V24.3336H126.785L133.65 37H138L130.762 23.9049C134.621 22.9001 137.707 20.1246 137.707 15.4606ZM122.123 10.8065H126.654C131.089 10.8065 133.525 12.2924 133.525 15.4606C133.525 18.8318 131.092 20.5468 126.654 20.5468H122.123V10.8065Z" fill="white"/>
  <path d="M152 7H148V37H152V7Z" fill="white"/>
  <path d="M185 37C193.284 37 200 30.2843 200 22C200 13.7157 193.284 7 185 7C176.716 7 170 13.7157 170 22C170 30.2843 176.716 37 185 37Z" fill="#FFED00"/>
</svg>