<svg class="style-svg replaced-svg svg-replaced-2" id="svg-replaced-2" fill="none" viewBox="0 0 35 36" height="36" width="35" xmlns="http://www.w3.org/2000/svg">
  <path fill="white" d="M17.5 0.5C7.83562 0.5 0 8.33562 0 18C0 27.6644 7.83562 35.5 17.5 35.5C27.1644 35.5 35 27.6644 35 18C35 8.33562 27.1644 0.5 17.5 0.5ZM25.6113 12.4015C25.3488 15.1679 24.2083 21.8835 23.6294 24.9825C23.3844 26.295 22.9002 26.734 22.4335 26.7763C21.4171 26.8696 20.6456 26.104 19.6613 25.4594C18.1213 24.4502 17.2506 23.8217 15.7558 22.8358C14.0277 21.6969 15.1477 21.0712 16.1321 20.049C16.3902 19.7806 20.8673 15.7075 20.9548 15.3385C20.965 15.2919 20.9767 15.1198 20.8731 15.0294C20.7696 14.939 20.6194 14.9696 20.5115 14.9944C20.3569 15.0294 17.8967 16.6554 13.1294 19.8725C12.4308 20.3523 11.7979 20.5856 11.2306 20.574C10.6065 20.5608 9.40479 20.221 8.51083 19.9294C7.41563 19.5735 6.54354 19.384 6.61938 18.7802C6.65875 18.4652 7.09188 18.1429 7.92021 17.8133C13.0215 15.5908 16.4237 14.1252 18.1256 13.4165C22.9863 11.3952 23.9954 11.0437 24.6546 11.0321C25.48 11.0204 25.6783 11.7015 25.6113 12.4015Z" clip-rule="evenodd" fill-rule="evenodd"></path>
</svg>