<svg class="style-svg replaced-svg svg-replaced-1" id="svg-replaced-1" fill="none" viewBox="0 0 35 36" height="36" width="35" xmlns="http://www.w3.org/2000/svg">
  <path fill="white" d="M17.5 0.5C27.1585 0.5 35 8.3415 35 18C35 27.6585 27.1585 35.5 17.5 35.5C7.8415 35.5 0 27.6585 0 18C0 8.3415 7.8415 0.5 17.5 0.5ZM27.9805 12.7348C27.729 11.7936 26.9878 11.0525 26.0466 10.8009C24.3405 10.3438 17.5 10.3438 17.5 10.3438C17.5 10.3438 10.6595 10.3438 8.95337 10.8009C8.0124 11.0525 7.27104 11.7936 7.01948 12.7348C6.5625 14.4407 6.5625 18.0001 6.5625 18.0001C6.5625 18.0001 6.5625 21.5594 7.01948 23.2652C7.27104 24.2064 8.0124 24.9478 8.95337 25.1993C10.6595 25.6562 17.5 25.6562 17.5 25.6562C17.5 25.6562 24.3405 25.6562 26.0466 25.1993C26.9878 24.9478 27.729 24.2064 27.9805 23.2652C28.4375 21.5594 28.4375 18.0001 28.4375 18.0001C28.4375 18.0001 28.4375 14.4407 27.9805 12.7348ZM15.3124 21.2815V14.7188L20.9956 18.0001L15.3124 21.2815Z" clip-rule="evenodd" fill-rule="evenodd"></path>
</svg>